# xmcd
#
# Track frame offsets: 
#        150
#        17652
#        34590
#        61893
#        83217
#        111322
#        124691
#        141203
#        160987
#        175399
#
# Disc length: 2574 seconds
#
# Revision: 0
# Processed by: cddbd v1.5.2PL0 Copyright (c) Steve Scherf et al.
# Submitted via: ExactAudioCopy v0.95b4
#
DISCID=810a0c0a
DTITLE=Mary Kadderly - Down Right Big Time
DYEAR=1997
DGENRE=Blues/Torch
TTITLE0=On the Street Where You Live
TTITLE1=Gee Baby Ain't I Good to You
TTITLE2=One Less Bell to Answer
TTITLE3=Down Right Big Time
TTITLE4=Black Coffee
TTITLE5=I'm an Old Cowhand
TTITLE6=Baby (You've Got What it Takes)
TTITLE7=I've Grown Accustomed to His Face
TTITLE8=April in Paris
TTITLE9=Close Your Eyes
EXTD=
EXTT0=
EXTT1=
EXTT2=
EXTT3=
EXTT4=
EXTT5=
EXTT6=
EXTT7=
EXTT8=
EXTT9=
PLAYORDER=
